<svg id="visual" viewBox="0 0 960 540" width="960" height="540" xmlns="http://www.w3.org/2000/svg" xmlns:xlink="http://www.w3.org/1999/xlink" version="1.1"><rect x="0" y="0" width="960" height="540" fill="#c7d2d7"></rect><path d="M0 108L26.7 133.8C53.3 159.7 106.7 211.3 160 242C213.3 272.7 266.7 282.3 320 257.3C373.3 232.3 426.7 172.7 480 133.5C533.3 94.3 586.7 75.7 640 97.8C693.3 120 746.7 183 800 202C853.3 221 906.7 196 933.3 183.5L960 171L960 0L933.3 0C906.7 0 853.3 0 800 0C746.7 0 693.3 0 640 0C586.7 0 533.3 0 480 0C426.7 0 373.3 0 320 0C266.7 0 213.3 0 160 0C106.7 0 53.3 0 26.7 0L0 0Z" fill="#0066FF" stroke-linecap="round" stroke-linejoin="miter"></path></svg>