<svg id="visual" viewBox="0 0 960 540" width="960" height="540" xmlns="http://www.w3.org/2000/svg" xmlns:xlink="http://www.w3.org/1999/xlink" version="1.1"><rect x="0" y="0" width="960" height="540" fill="#d4e6ef"></rect><path d="M0 67L17.8 91.5C35.7 116 71.3 165 106.8 182.5C142.3 200 177.7 186 213.2 158.7C248.7 131.3 284.3 90.7 320 100C355.7 109.3 391.3 168.7 426.8 177.8C462.3 187 497.7 146 533.2 134.3C568.7 122.7 604.3 140.3 640 133.7C675.7 127 711.3 96 746.8 103.2C782.3 110.3 817.7 155.7 853.2 168.2C888.7 180.7 924.3 160.3 942.2 150.2L960 140L960 0L942.2 0C924.3 0 888.7 0 853.2 0C817.7 0 782.3 0 746.8 0C711.3 0 675.7 0 640 0C604.3 0 568.7 0 533.2 0C497.7 0 462.3 0 426.8 0C391.3 0 355.7 0 320 0C284.3 0 248.7 0 213.2 0C177.7 0 142.3 0 106.8 0C71.3 0 35.7 0 17.8 0L0 0Z" fill="#0066FF" stroke-linecap="round" stroke-linejoin="miter"></path></svg>